<svg width="46" height="46" viewBox="0 0 46 46" fill="none" xmlns="http://www.w3.org/2000/svg">
<rect width="46" height="46" rx="23" fill="#35BD8E"/>
<path fill-rule="evenodd" clip-rule="evenodd" d="M29.9008 18.4C29.9008 22.2108 26.8115 25.3 23.0008 25.3C19.19 25.3 16.1008 22.2108 16.1008 18.4C16.1008 14.5892 19.19 11.5 23.0008 11.5C26.8115 11.5 29.9008 14.5892 29.9008 18.4ZM27.6008 18.4C27.6008 20.9405 25.5413 23 23.0008 23C20.4603 23 18.4008 20.9405 18.4008 18.4C18.4008 15.8595 20.4603 13.8 23.0008 13.8C25.5413 13.8 27.6008 15.8595 27.6008 18.4Z" fill="#21005D"/>
<path d="M23.0008 28.75C15.5552 28.75 9.21143 33.1527 6.79492 39.3208C7.3836 39.9054 8.00373 40.4583 8.65255 40.9769C10.452 35.3138 16.097 31.05 23.0008 31.05C29.9046 31.05 35.5495 35.3139 37.349 40.9769C37.9978 40.4583 38.6179 39.9054 39.2066 39.3209C36.7901 33.1527 30.4463 28.75 23.0008 28.75Z" fill="#21005D"/>
</svg>
