<svg width="50" height="57" viewBox="0 0 50 57" fill="none" xmlns="http://www.w3.org/2000/svg">
<path d="M25 56.7607C38.8071 56.7607 50 44.0662 50 28.4067C50 12.7472 38.8071 0.0527344 25 0.0527344C11.1929 0.0527344 0 12.7472 0 28.4067C0 44.0662 11.1929 56.7607 25 56.7607Z" fill="#E4405F"/>
<path d="M25 14.2295C21.6064 14.2295 21.1816 14.2461 19.8486 14.3126C18.5156 14.3846 17.6123 14.6227 16.8164 14.9716C15.9961 15.3315 15.2979 15.8189 14.5996 16.6052C13.9014 17.3916 13.4766 18.1835 13.1592 19.1194C12.8516 20.0221 12.6416 21.0522 12.5781 22.5585C12.5146 24.0703 12.5049 24.5521 12.5049 28.4009C12.5049 32.2498 12.5195 32.7316 12.5781 34.2434C12.6416 35.7497 12.8516 36.7798 13.1592 37.6824C13.4766 38.6128 13.9062 39.4047 14.5996 40.1966C15.293 40.983 15.9912 41.4704 16.8164 41.8303C17.6123 42.1792 18.5205 42.4173 19.8486 42.4893C21.1816 42.5613 21.6064 42.5724 25 42.5724C28.3936 42.5724 28.8184 42.5558 30.1514 42.4893C31.4795 42.4173 32.3877 42.1792 33.1836 41.8303C34.0039 41.4704 34.7022 40.983 35.4004 40.1966C36.0938 39.4103 36.5234 38.6183 36.8408 37.6824C37.1484 36.7798 37.3584 35.7497 37.4219 34.2434C37.4854 32.7316 37.4951 32.2498 37.4951 28.4009C37.4951 24.5521 37.4805 24.0703 37.4219 22.5585C37.3584 21.0522 37.1484 20.0221 36.8408 19.1194C36.5234 18.1891 36.0938 17.3972 35.4004 16.6052C34.707 15.8189 34.0088 15.3315 33.1836 14.9716C32.3877 14.6227 31.4795 14.3846 30.1514 14.3126C28.8184 14.2461 28.3936 14.2295 25 14.2295ZM25 16.7825C28.335 16.7825 28.7354 16.7991 30.0537 16.8655C31.2744 16.932 31.9336 17.159 32.373 17.3584C32.959 17.6131 33.374 17.9233 33.8135 18.4161C34.248 18.9145 34.5215 19.3853 34.7461 20.0498C34.917 20.5482 35.1221 21.2958 35.1758 22.6803C35.2344 24.1755 35.249 24.6241 35.249 28.412C35.249 32.1999 35.2344 32.6485 35.1709 34.1437C35.1074 35.5282 34.9023 36.2758 34.7314 36.7742C34.4971 37.4388 34.2334 37.9095 33.7939 38.4079C33.3594 38.9008 32.9346 39.2109 32.3584 39.4656C31.9189 39.6595 31.25 39.8921 30.0293 39.953C28.7012 40.0194 28.3105 40.036 24.9658 40.036C21.6211 40.036 21.2305 40.0194 19.9023 39.9474C18.6816 39.8754 18.0127 39.6429 17.5732 39.449C16.9824 39.1832 16.5723 38.8842 16.1377 38.3858C15.6982 37.8929 15.4199 37.4111 15.2002 36.7576C15.0293 36.2592 14.8242 35.5005 14.7607 34.116C14.7119 32.6264 14.6973 32.1667 14.6973 28.3954C14.6973 24.6186 14.7119 24.1589 14.7607 22.6526C14.8242 21.2681 15.0244 20.5095 15.2002 20.011C15.4199 19.3354 15.6982 18.8758 16.1377 18.3774C16.5723 17.8845 16.9824 17.5633 17.5732 17.3141C18.0127 17.1203 18.667 16.8877 19.8877 16.8157C21.2158 16.7603 21.6064 16.7437 24.9512 16.7437L25 16.7825ZM25 21.1242C21.4551 21.1242 18.5791 24.386 18.5791 28.4065C18.5791 32.427 21.4551 35.6888 25 35.6888C28.5449 35.6888 31.4209 32.427 31.4209 28.4065C31.4209 24.386 28.5449 21.1242 25 21.1242ZM25 33.1303C22.7002 33.1303 20.835 31.0148 20.835 28.4065C20.835 25.7981 22.7002 23.6827 25 23.6827C27.2998 23.6827 29.165 25.7981 29.165 28.4065C29.165 31.0148 27.2998 33.1303 25 33.1303ZM33.1738 20.8417C33.1738 21.7832 32.5 22.5419 31.6748 22.5419C30.8447 22.5419 30.1758 21.7776 30.1758 20.8417C30.1758 19.9058 30.8496 19.1416 31.6748 19.1416C32.5 19.1361 33.1738 19.9003 33.1738 20.8417Z" fill="white"/>
</svg>
