<svg width="50" height="54" viewBox="0 0 50 54" fill="none" xmlns="http://www.w3.org/2000/svg">
<path d="M47.5 0.0527344H2.5C1.83696 0.0527344 1.20107 0.332836 0.732233 0.831421C0.263392 1.33001 0 2.00623 0 2.71134V50.5662C0 51.2713 0.263392 51.9476 0.732233 52.4461C1.20107 52.9447 1.83696 53.2248 2.5 53.2248H47.5C48.163 53.2248 48.7989 52.9447 49.2678 52.4461C49.7366 51.9476 50 51.2713 50 50.5662V2.71134C50 2.00623 49.7366 1.33001 49.2678 0.831421C48.7989 0.332836 48.163 0.0527344 47.5 0.0527344ZM39.2975 23.2491C39.025 23.2783 38.75 23.2916 38.4775 23.2943C36.9942 23.2963 35.5339 22.9053 34.2283 22.1566C32.9228 21.4079 31.8133 20.325 31 19.0059V33.6096C31.0005 35.7452 30.4054 37.833 29.29 39.6089C28.1747 41.3848 26.5891 42.769 24.7338 43.5865C22.8786 44.404 20.8371 44.6181 18.8675 44.2016C16.8978 43.7851 15.0886 42.7567 13.6686 41.2466C12.2486 39.7365 11.2816 37.8125 10.89 35.718C10.4983 33.6234 10.6996 31.4523 11.4683 29.4794C12.237 27.5065 13.5387 25.8203 15.2086 24.6342C16.8786 23.448 18.8418 22.8152 20.85 22.8157C21.0625 22.8157 21.2675 22.837 21.4775 22.8503V28.1675C20.778 28.0774 20.0687 28.1403 19.3929 28.3525C18.7172 28.5647 18.0894 28.9215 17.5481 29.4012C17.0068 29.8808 16.5635 30.4731 16.2454 31.1416C15.9273 31.8102 15.741 32.5408 15.6982 33.2887C15.6553 34.0366 15.7567 34.7859 15.9962 35.4905C16.2356 36.1952 16.6081 36.8403 17.0906 37.3863C17.5731 37.9323 18.1555 38.3676 18.802 38.6654C19.4485 38.9633 20.1454 39.1174 20.85 39.1183C22.2404 39.145 23.5852 38.5904 24.595 37.5737C25.6049 36.5569 26.1991 35.1593 26.25 33.6814L26.3 8.87398H31.085C31.3035 11.0845 32.2457 13.143 33.747 14.6894C35.2483 16.2359 37.213 17.1718 39.2975 17.3337V23.2491Z" fill="black"/>
</svg>
