<svg width="50" height="56" viewBox="0 0 50 56" fill="none" xmlns="http://www.w3.org/2000/svg">
<path d="M25 55.2386C38.8071 55.2386 50 43.0894 50 28.1027C50 13.1159 38.8071 0.966797 25 0.966797C11.1929 0.966797 0 13.1159 0 28.1027C0 43.0894 11.1929 55.2386 25 55.2386Z" fill="#3C5A99"/>
<path d="M26.9434 41.6706V29.3111H30.7813L31.3574 24.4722H26.9434V21.3929C26.9434 19.9937 27.2998 19.045 29.1455 19.045H31.4844V14.7308C31.0791 14.6725 29.6826 14.54 28.0566 14.54C24.6631 14.54 22.3389 16.7872 22.3389 20.9159V24.4775H18.5156V29.3164H22.3389V41.6706H26.9434Z" fill="white"/>
</svg>
